# xmcd
#
# Track frame offsets:
#	150
#	13682
#	30817
#	47055
#	62435
#	73977
#	85932
#	99385
#	108435
#	117795
#	135555
#	146287
#	155270
#	170822
#	183615
#	194975
#	202947
#	214207
#	231915
#	240372
#	250085
#	261862
#	274860
#	295727
#
# Disc length: 4160 seconds
#
# Revision: 1
# Processed by: cddbd v1.5.2PL0 Copyright (c) Steve Scherf et al.
# Submitted via: audiograbber 1.83.01
#
DISCID=5a103e18
DTITLE=Various Artist - The Immediate Blues Anthology - CD 3 - More Immediate 
DTITLE=Blues
DYEAR=1996
DGENRE=Blues
TTITLE0=Rod Stewart and P.P. Arnold - Come Home Baby
TTITLE1=P.P. Arnold - Life Is But Nothing
TTITLE2=Rod Stewart - Little Miss Understood
TTITLE3=Chris Farlowe - Handbags and Gladrags
TTITLE4=Barbara Lynn - That's What A Friend Will Do
TTITLE5=Charles Dickens - Our Soul Brothers
TTITLE6=Chris Farlowe - Cuttin' In
TTITLE7=Chris Farlowe - Treat Her Good
TTITLE8=Mockingbirds - Skit Skat
TTITLE9=Small Faces - Every Little Bit Hurts
TTITLE10=Chris Farlowe - Baby Make It Soon
TTITLE11=Mick Softley - She's My Girl
TTITLE12=P.P. Arnold - It'll Never Happen Again
TTITLE13=Fleetwood Mac - Man Of The World
TTITLE14=Golden Apples Of The Sun - Chocolate Rolls, Tea and Monopoly
TTITLE15=Barbara Lynn - You Can't By My Love
TTITLE16=Chris Farlowe - Rockin' Pneumonia and The Boogie Woogie Flu'
TTITLE17=Chris Farlowe - North South East West
TTITLE18=Les Fleurs De Lys - So Come On
TTITLE19=Small Faces - Talk To You
TTITLE20=Chris Farlowe - Moanin'
TTITLE21=Apostolic Intervention - Madame Garcia
TTITLE22=Chris Farlowe - Summertime
TTITLE23=Amen Corner - Gin House (live)
EXTD=
EXTT0=
EXTT1=
EXTT2=
EXTT3=
EXTT4=
EXTT5=
EXTT6=
EXTT7=
EXTT8=
EXTT9=
EXTT10=
EXTT11=
EXTT12=
EXTT13=
EXTT14=
EXTT15=
EXTT16=
EXTT17=
EXTT18=
EXTT19=
EXTT20=
EXTT21=
EXTT22=
EXTT23=
PLAYORDER=
